<?xml version="1.0" encoding="UTF-8"?>
<!DOCTYPE svg PUBLIC "-//W3C//DTD SVG 1.1//EN" "http://www.w3.org/Graphics/SVG/1.1/DTD/svg11.dtd">
<!-- Creator: CorelDRAW 2017 -->
<svg xmlns="http://www.w3.org/2000/svg" xml:space="preserve" width="114.697mm" height="102.3mm" version="1.1" style="shape-rendering:geometricPrecision; text-rendering:geometricPrecision; image-rendering:optimizeQuality; fill-rule:evenodd; clip-rule:evenodd"
viewBox="0 0 9617.41 8577.95"
 xmlns:xlink="http://www.w3.org/1999/xlink">
 <defs>
  <style type="text/css">
   <![CDATA[
    .fil0 {fill:#050507}
   ]]>
  </style>
 </defs>
 <g id="Слой_x0020_1">
  <metadata id="CorelCorpID_0Corel-Layer"/>
  <g id="_1266721725984">
   <g>
    <g>
     <path class="fil0" d="M3509.48 4984.91c79.78,244.52 307.81,409.95 564.73,409.95l4178.51 0c266.95,0 501.13,-178.07 572.51,-435.46l770.54 -2779.71c49.57,-178.84 12.88,-370.55 -99.51,-518.48 -112.39,-147.69 -286.99,-234.34 -472.53,-234.34l-6173.65 0 -557.79 -776.87c-293.31,-407.94 -764.62,-649.99 -1267.22,-649.99l-584.92 0c-242.74,0 -440.16,195.34 -440.16,438.46 0,243.13 197.42,438.31 440.16,438.31l490.27 0c277.81,0 538.67,134.6 699.56,361.23l786.04 1107.1 0 3458.45c0,562.11 455.65,1017.76 1017.53,1017.76l4708.01 0c242.9,0 439.7,-195.41 439.7,-438.3 0,-242.75 -196.8,-438.31 -439.7,-438.31l-4591.3 0c-133.82,0 -242.28,-108.31 -242.28,-242.28l0 -1335.36 201.5 617.84z"/>
     <circle class="fil0" cx="3357.78" cy="7915.71" r="662.24"/>
     <circle class="fil0" cx="7645.13" cy="7915.71" r="662.24"/>
    </g>
   </g>
   <g>
   </g>
   <g>
   </g>
   <g>
   </g>
   <g>
   </g>
   <g>
   </g>
   <g>
   </g>
   <g>
   </g>
   <g>
   </g>
   <g>
   </g>
   <g>
   </g>
   <g>
   </g>
   <g>
   </g>
   <g>
   </g>
   <g>
   </g>
   <g>
   </g>
  </g>
 </g>
</svg>
