<?xml version="1.0" encoding="UTF-8"?>
<!DOCTYPE svg PUBLIC "-//W3C//DTD SVG 1.1//EN" "http://www.w3.org/Graphics/SVG/1.1/DTD/svg11.dtd">
<!-- Creator: CorelDRAW 2017 -->
<svg xmlns="http://www.w3.org/2000/svg" xml:space="preserve" width="94.9413mm" height="91.6416mm" version="1.1" style="shape-rendering:geometricPrecision; text-rendering:geometricPrecision; image-rendering:optimizeQuality; fill-rule:evenodd; clip-rule:evenodd"
viewBox="0 0 11832.24 11421.01"
 xmlns:xlink="http://www.w3.org/1999/xlink">
 <defs>
  <style type="text/css">
   <![CDATA[
    .fil0 {fill:#050507}
   ]]>
  </style>
 </defs>
 <g id="Слой_x0020_1">
  <metadata id="CorelCorpID_0Corel-Layer"/>
  <g id="_1266645018256">
   <g>
    <path class="fil0" d="M11245.99 4206.37c-298.89,-255.15 -673.11,-393.66 -1052.19,-393.66l-383.94 0 -1382.66 0 -787.32 0 0 -1844.35c0,-775.17 -225.99,-1334.07 -673.11,-1662.11 -707.12,-520.02 -1681.55,-223.56 -1722.86,-208.97 -121.5,38.87 -204.11,150.65 -204.11,277.02l0 2063.05c0,673.11 -320.76,1244.16 -954.99,1698.57 -473.84,340.21 -957.41,488.44 -1008.44,505.44l-70.48 17.01c-104.49,-177.38 -296.45,-296.45 -517.59,-296.45l-1888.1 -0.01c-330.49,0 -600.2,269.73 -600.2,600.2l0 5550.1c0,330.49 269.73,600.2 600.2,600.2l1892.96 0c184.68,0 352.35,-85.05 461.71,-216.27 303.75,323.18 733.85,524.88 1200.41,524.88l1601.37 0 165.23 0 3282.92 0c1115.36,0 1827.34,-583.2 1953.7,-1603.8l653.67 -4055.65c89.92,-583.19 -126.36,-1180.98 -566.18,-1555.19zm-8738.24 6305.82c0,9.72 -7.29,17.01 -17.01,17.01l-1890.53 0c-9.72,0 -17.01,-7.29 -17.01,-17.01l0 -5550.1c0,-9.72 7.29,-17.01 17.01,-17.01l1892.96 0c9.72,0 17.01,7.29 17.01,17.01l0 5550.1 -2.43 0zm8723.66 -4842.97l-651.24 4062.94c0,2.43 0,7.29 -2.43,12.15 -89.91,726.56 -551.61,1095.92 -1375.37,1095.92l-3282.91 0 -165.24 0 -1601.37 0c-517.59,0 -967.13,-386.37 -1047.33,-896.67 -2.42,-17.01 -7.29,-34.01 -12.14,-51.02l0 -4655.86 126.36 -29.16c4.86,0 7.29,-2.42 12.14,-2.42 24.3,-7.3 600.2,-170.1 1180.98,-583.2 794.61,-563.75 1212.57,-1319.48 1212.57,-2184.56l0 -1829.77c252.72,-41.31 685.25,-63.19 998.72,170.09 286.74,211.4 432.53,612.35 432.53,1190.7l0 2133.53c0,160.38 131.22,291.6 291.6,291.6l1078.92 0 1382.66 0 383.94 0c240.57,0 481.13,89.91 673.11,255.15 286.74,245.43 427.68,636.66 364.5,1020.59z"/>
   </g>
   <g>
   </g>
   <g>
   </g>
   <g>
   </g>
   <g>
   </g>
   <g>
   </g>
   <g>
   </g>
   <g>
   </g>
   <g>
   </g>
   <g>
   </g>
   <g>
   </g>
   <g>
   </g>
   <g>
   </g>
   <g>
   </g>
   <g>
   </g>
   <g>
   </g>
  </g>
 </g>
</svg>
