<?xml version="1.0" encoding="UTF-8"?>
<!DOCTYPE svg PUBLIC "-//W3C//DTD SVG 1.1//EN" "http://www.w3.org/Graphics/SVG/1.1/DTD/svg11.dtd">
<!-- Creator: CorelDRAW 2017 -->
<svg xmlns="http://www.w3.org/2000/svg" xml:space="preserve" width="93.4297mm" height="88.1441mm" version="1.1" style="shape-rendering:geometricPrecision; text-rendering:geometricPrecision; image-rendering:optimizeQuality; fill-rule:evenodd; clip-rule:evenodd"
viewBox="0 0 4993.82 4711.3"
 xmlns:xlink="http://www.w3.org/1999/xlink">
 <defs>
  <style type="text/css">
   <![CDATA[
    .fil0 {fill:#050507}
   ]]>
  </style>
 </defs>
 <g id="Слой_x0020_1">
  <metadata id="CorelCorpID_0Corel-Layer"/>
  <g id="_1266645024144">
   <g>
    <g>
     <path class="fil0" d="M2947.81 1849.22c0,74.65 13.3,144.74 36.42,206.2 18.79,50.07 39.09,68.99 36.76,46.73 -1.48,-13.23 -2.25,-26.7 -2.25,-40.6 0,-161.99 87.22,-293.22 194.56,-293.22 107.41,0 194.74,131.34 194.74,293.22 0,35.92 -4.58,70.08 -12.56,101.75 -13.23,51.86 2.89,68.15 38.35,28 70.29,-79.51 115.61,-203.22 115.61,-342.01 0,-239.7 -134.96,-434.72 -300.78,-434.72 -165.96,-0.07 -300.85,195.05 -300.85,434.66z"/>
     <path class="fil0" d="M4993.82 2355.61c0,-1777.62 -1117.73,-2355.61 -2496.9,-2355.61 -1379.11,0.04 -2496.91,578.02 -2496.91,2355.61 0,1844.65 1117.8,2355.68 2496.91,2355.68 1379.21,0.03 2496.9,-510.93 2496.9,-2355.68zm-3689.47 -1181.37c-8.94,-57.98 30.82,-112.1 88.69,-121.03 26.07,-3.8 639.7,-91.4 1079.84,444.33 37.15,45.35 30.54,112.27 -14.6,149.31 -19.74,16.18 -43.56,24.1 -67.3,24.1 -30.61,0 -61.08,-13.3 -82.01,-38.8 -364.35,-443.38 -878.48,-369.85 -883.41,-369.28 -58.37,9.21 -112.27,-30.64 -121.2,-88.63zm197.44 734.38c-38.91,7.25 -75.5,-18.26 -82.68,-56.61 -7.07,-38.46 18.26,-75.29 56.51,-82.57 22.9,-4.19 563.28,-100.62 869.34,224.54 26.63,28.39 25.33,73.18 -3.16,99.99 -13.69,12.95 -31,19.28 -48.48,19.28 -18.72,0 -37.61,-7.53 -51.47,-22.24 -253.39,-269.5 -735.18,-183.3 -740.04,-182.39zm1696.07 1362.99c-136.37,245.93 -494.5,742.75 -1063.55,498.97 -454.74,-194.92 -358.3,-691.28 -280.48,-929.85 24.31,-74.48 64.7,-70.01 93.73,2.43 59.49,148.12 190.66,378.5 452.03,478.49 274.42,104.92 576.4,-16.68 739.58,-103.61 69.1,-36.87 96.47,-14.63 58.68,53.58zm50.63 -846.26c-243.89,0 -442.18,-258.42 -442.18,-576.02 0,-317.7 198.29,-576.23 442.18,-576.23 243.79,0 442.25,258.42 442.25,576.23 0.04,317.6 -198.33,576.02 -442.25,576.02zm407.39 -1092.19c-14.88,7.35 -30.71,10.7 -46.16,10.7 -39.54,0 -77.37,-22.17 -95.59,-59.95 -0.74,-1.48 -92.25,-183.48 -240.44,-195.76 -121.84,-9.78 -240.55,116.63 -275.62,166.24 -33.88,47.85 -100.06,59.5 -147.74,25.79 -47.96,-33.6 -59.67,-99.21 -26.14,-147.28 7.92,-11.43 197.17,-278.79 467.3,-256.27 269.57,22.52 408.19,302.93 413.86,314.82 25.47,52.81 3.38,116.28 -49.47,141.72z"/>
    </g>
   </g>
   <g>
   </g>
   <g>
   </g>
   <g>
   </g>
   <g>
   </g>
   <g>
   </g>
   <g>
   </g>
   <g>
   </g>
   <g>
   </g>
   <g>
   </g>
   <g>
   </g>
   <g>
   </g>
   <g>
   </g>
   <g>
   </g>
   <g>
   </g>
   <g>
   </g>
  </g>
 </g>
</svg>
