<?xml version="1.0" encoding="UTF-8"?>
<!DOCTYPE svg PUBLIC "-//W3C//DTD SVG 1.1//EN" "http://www.w3.org/Graphics/SVG/1.1/DTD/svg11.dtd">
<!-- Creator: CorelDRAW 2017 -->
<svg xmlns="http://www.w3.org/2000/svg" xml:space="preserve" width="96.9749mm" height="58.6436mm" version="1.1" style="shape-rendering:geometricPrecision; text-rendering:geometricPrecision; image-rendering:optimizeQuality; fill-rule:evenodd; clip-rule:evenodd"
viewBox="0 0 914.24 552.87"
 xmlns:xlink="http://www.w3.org/1999/xlink">
 <defs>
  <style type="text/css">
   <![CDATA[
    .fil0 {fill:#050507}
   ]]>
  </style>
 </defs>
 <g id="Слой_x0020_1">
  <metadata id="CorelCorpID_0Corel-Layer"/>
  <g id="_1266593031552">
   <g>
    <g>
     <path class="fil0" d="M235.31 280.81c51.41,0 93.21,-62.99 93.21,-140.42 0,-77.41 -41.81,-140.4 -93.21,-140.4 -51.41,0 -93.22,62.99 -93.22,140.4 -0,77.43 41.83,140.42 93.22,140.42z"/>
     <path class="fil0" d="M678.87 280.81c51.41,0 93.22,-62.99 93.22,-140.42 0,-77.41 -41.82,-140.4 -93.22,-140.4 -51.39,0 -93.2,62.99 -93.2,140.4 0,77.43 41.82,140.42 93.2,140.42z"/>
     <path class="fil0" d="M908.77 348.39c-5.69,-5.74 -14.37,-7.3 -21.66,-3.79 -116.97,55.78 -269.68,86.5 -430.01,86.5 -160.29,0 -313,-30.72 -429.98,-86.49 -7.3,-3.48 -16,-1.94 -21.65,3.79 -5.68,5.74 -7.08,14.47 -3.5,21.71 53.15,107.61 240.32,182.76 455.14,182.76 214.91,0 402.09,-75.17 455.18,-182.78 3.57,-7.23 2.14,-15.97 -3.53,-21.7z"/>
    </g>
   </g>
   <g>
   </g>
   <g>
   </g>
   <g>
   </g>
   <g>
   </g>
   <g>
   </g>
   <g>
   </g>
   <g>
   </g>
   <g>
   </g>
   <g>
   </g>
   <g>
   </g>
   <g>
   </g>
   <g>
   </g>
   <g>
   </g>
   <g>
   </g>
   <g>
   </g>
  </g>
 </g>
</svg>
