<?xml version="1.0" encoding="UTF-8"?>
<!DOCTYPE svg PUBLIC "-//W3C//DTD SVG 1.1//EN" "http://www.w3.org/Graphics/SVG/1.1/DTD/svg11.dtd">
<!-- Creator: CorelDRAW 2017 -->
<svg xmlns="http://www.w3.org/2000/svg" xml:space="preserve" width="96.5748mm" height="96.5749mm" version="1.1" style="shape-rendering:geometricPrecision; text-rendering:geometricPrecision; image-rendering:optimizeQuality; fill-rule:evenodd; clip-rule:evenodd"
viewBox="0 0 721.01 721.01"
 xmlns:xlink="http://www.w3.org/1999/xlink">
 <defs>
  <style type="text/css">
   <![CDATA[
    .fil0 {fill:#050507}
   ]]>
  </style>
 </defs>
 <g id="Слой_x0020_1">
  <metadata id="CorelCorpID_0Corel-Layer"/>
  <path class="fil0" d="M360.51 0c199.1,0 360.51,161.4 360.51,360.51 0,199.1 -161.4,360.51 -360.51,360.51 -199.1,0 -360.51,-161.4 -360.51,-360.51 0,-199.1 161.4,-360.51 360.51,-360.51zm-132.08 363.11c30.61,0 55.51,-37.51 55.51,-83.61 0,-46.09 -24.9,-83.6 -55.51,-83.6 -30.61,0 -55.51,37.51 -55.51,83.6 -0,46.1 24.91,83.61 55.51,83.61zm401.02 40.24c-3.39,-3.42 -8.56,-4.35 -12.9,-2.26 -69.65,33.22 -160.58,51.51 -256.05,51.51 -95.45,0 -186.38,-18.29 -256.04,-51.5 -4.35,-2.07 -9.53,-1.16 -12.89,2.26 -3.38,3.42 -4.22,8.62 -2.08,12.93 31.65,64.08 143.1,108.83 271.02,108.83 127.97,0 239.43,-44.76 271.05,-108.84 2.12,-4.31 1.28,-9.51 -2.1,-12.92zm-136.9 -40.24c30.61,0 55.51,-37.51 55.51,-83.61 0,-46.09 -24.9,-83.6 -55.51,-83.6 -30.6,0 -55.5,37.51 -55.5,83.6 0,46.1 24.9,83.61 55.5,83.61z"/>
 </g>
</svg>
