<?xml version="1.0" encoding="UTF-8"?>
<!DOCTYPE svg PUBLIC "-//W3C//DTD SVG 1.1//EN" "http://www.w3.org/Graphics/SVG/1.1/DTD/svg11.dtd">
<!-- Creator: CorelDRAW 2017 -->
<svg xmlns="http://www.w3.org/2000/svg" xml:space="preserve" width="93.4212mm" height="93.4244mm" version="1.1" style="shape-rendering:geometricPrecision; text-rendering:geometricPrecision; image-rendering:optimizeQuality; fill-rule:evenodd; clip-rule:evenodd"
viewBox="0 0 2096.79 2096.86"
 xmlns:xlink="http://www.w3.org/1999/xlink">
 <defs>
  <style type="text/css">
   <![CDATA[
    .fil0 {fill:#050507}
   ]]>
  </style>
 </defs>
 <g id="Слой_x0020_1">
  <metadata id="CorelCorpID_0Corel-Layer"/>
  <g id="_1266645055408">
   <g>
    <g>
     <path class="fil0" d="M1344.18 976.99c0,-31.67 1.61,-64.11 4.13,-98.25l-3.28 0c-17.13,34.14 -30.84,64.92 -48.73,98.25l-70.61 115.29 0 1.6 118.5 0 0 -116.89z"/>
     <path class="fil0" d="M1048.45 0c-578.04,0 -1048.45,470.37 -1048.45,1048.41 0,578.02 470.37,1048.45 1048.45,1048.45 578.06,0 1048.34,-470.36 1048.34,-1048.41 0,-578.05 -470.29,-1048.45 -1048.34,-1048.45zm832.27 1094.1c-13.36,15.45 -32.23,24.96 -52.69,26.43 -1.85,0.13 -3.74,0.28 -5.6,0.28 -0.45,0 -0.87,-0.28 -1.26,-0.28 -1.43,0.07 -2.77,0.42 -4.23,0.42 -27.62,0 -51.63,-14.65 -65.23,-36.56l-139.83 -120.74c-23.56,-20.36 -32.54,-52.87 -22.79,-82.47 9.83,-29.54 36.5,-50.3 67.51,-52.59l48.63 -3.53c-92.64,-285.85 -361.11,-493.25 -677.43,-493.25 -392.7,0 -712.17,319.48 -712.17,712.21 0,392.68 319.47,712.19 712.17,712.19 227.31,0 442.93,-110.05 576.75,-294.28 24.96,-34.32 73.1,-42.09 107.53,-17.06 34.4,24.96 42.02,73.13 17.06,107.53 -162.69,224.04 -424.87,357.75 -701.33,357.75 -477.61,0 -866.18,-388.52 -866.18,-866.15 0,-477.62 388.57,-866.16 866.18,-866.16 397.66,0 732.86,269.78 834.11,635.74l93.3 -6.8c30.66,-2.64 60.44,14.32 74.39,42.21 14.09,27.81 9.83,61.39 -10.53,84.91l-138.35 160.19zm-770.33 92.28l0 -80.26 199.68 -321.53 150.98 0 0 309.38 63.38 0 0 92.5 -63.38 -0 0 125.88 -116.93 0 0 -125.88 -233.73 0 0 -0.08 -0 0zm-281.2 -311.69c-45.47,0 -85.19,22.72 -112.79,43.89l-34.94 -88.54c39.81,-29.96 101.52,-54.45 172.93,-54.45 119.34,0 185.1,69.85 185.1,165.63 0,88.53 -64.11,159.16 -140.42,227.33l-48.72 40.66 0 1.57 198.91 -0 0 101.52 -374.28 0 0 -74.74 68.15 -61.66c115.34,-103.11 171.37,-162.4 172.94,-224.06 0.04,-43.03 -25.92,-77.14 -86.88,-77.14z"/>
    </g>
   </g>
   <g>
   </g>
   <g>
   </g>
   <g>
   </g>
   <g>
   </g>
   <g>
   </g>
   <g>
   </g>
   <g>
   </g>
   <g>
   </g>
   <g>
   </g>
   <g>
   </g>
   <g>
   </g>
   <g>
   </g>
   <g>
   </g>
   <g>
   </g>
   <g>
   </g>
  </g>
 </g>
</svg>
