<?xml version="1.0" encoding="UTF-8"?>
<!DOCTYPE svg PUBLIC "-//W3C//DTD SVG 1.1//EN" "http://www.w3.org/Graphics/SVG/1.1/DTD/svg11.dtd">
<!-- Creator: CorelDRAW 2017 -->
<svg xmlns="http://www.w3.org/2000/svg" xml:space="preserve" width="144.828mm" height="61.9047mm" version="1.1" style="shape-rendering:geometricPrecision; text-rendering:geometricPrecision; image-rendering:optimizeQuality; fill-rule:evenodd; clip-rule:evenodd"
viewBox="0 0 3132.21 1338.82"
 xmlns:xlink="http://www.w3.org/1999/xlink">
 <defs>
  <style type="text/css">
   <![CDATA[
    .fil0 {fill:#050507;fill-rule:nonzero}
   ]]>
  </style>
 </defs>
 <g id="Слой_x0020_1">
  <metadata id="CorelCorpID_0Corel-Layer"/>
  <path class="fil0" d="M713 1223.62l0 -230.4 -401.65 0 264.65 -280.22c88.74,-93.41 137,-155.68 137,-272.44 0,-208.61 -149.45,-334.7 -354.94,-334.7 -193.04,0 -358.05,119.87 -358.05,337.82l255.31 0c0,-85.62 56.04,-107.42 102.75,-107.42 65.39,0 99.63,42.03 99.63,102.75 0,46.7 -15.57,74.73 -56.04,118.31l-401.64 435.9 0 230.4 713 0zm895.14 -146.34l0 -242.85 -82.51 0 0 -146.34 -242.85 0 0 146.34 -179.03 0 367.4 -719.23 -280.22 0 -367.4 719.23 0 242.85 459.24 0 0 146.34 242.85 0 0 -146.34 82.51 0zm720.78 -1077.28l-236.63 0 -443.68 1338.82 236.63 0 443.68 -1338.82zm803.29 345.6l0 -230.4 -759.7 0 0 404.76 242.85 0 0 -174.36 236.63 0 -345.6 878.02 280.22 0 345.6 -878.02z"/>
 </g>
</svg>
