<?xml version="1.0" encoding="UTF-8"?>
<!DOCTYPE svg PUBLIC "-//W3C//DTD SVG 1.1//EN" "http://www.w3.org/Graphics/SVG/1.1/DTD/svg11.dtd">
<!-- Creator: CorelDRAW 2017 -->
<svg xmlns="http://www.w3.org/2000/svg" xml:space="preserve" width="103.515mm" height="100.26mm" version="1.1" style="shape-rendering:geometricPrecision; text-rendering:geometricPrecision; image-rendering:optimizeQuality; fill-rule:evenodd; clip-rule:evenodd"
viewBox="0 0 7598.34 7359.4"
 xmlns:xlink="http://www.w3.org/1999/xlink">
 <defs>
  <style type="text/css">
   <![CDATA[
    .fil0 {fill:#050507}
   ]]>
  </style>
 </defs>
 <g id="Слой_x0020_1">
  <metadata id="CorelCorpID_0Corel-Layer"/>
  <g id="_1266593011232">
   <g>
    <path class="fil0" d="M7017.12 2052.17l-4890.46 -931.5 -141.76 -744.19c-41.42,-218.15 -233.6,-376.47 -456.98,-376.47l-1103.51 0c-234.38,0 -424.42,190.03 -424.42,424.42 0,234.38 190.03,424.41 424.42,424.41l786.39 0 157.58 827.24c0.92,6.62 521.49,3078.44 521.49,3078.44 60.23,355.15 402.05,644.09 761.88,644.09l3974.64 0c363.81,0 695.16,-294.18 738.59,-655.74l228.5 -1902.4c43.9,-365.78 -214.65,-719.37 -576.36,-788.29z"/>
    <path class="fil0" d="M2809.09 5845.16c-417.45,0 -757.09,339.64 -757.09,757.12 0,417.49 339.64,757.13 757.09,757.13 417.49,0 757.13,-339.64 757.13,-757.13 0,-417.48 -339.64,-757.12 -757.13,-757.12z"/>
    <path class="fil0" d="M6141.71 5845.16c-417.49,0 -757.13,339.64 -757.13,757.12 0,417.49 339.64,757.13 757.13,757.13 417.48,0 757.12,-339.64 757.12,-757.13 0,-417.48 -339.64,-757.12 -757.12,-757.12z"/>
   </g>
   <g>
   </g>
   <g>
   </g>
   <g>
   </g>
   <g>
   </g>
   <g>
   </g>
   <g>
   </g>
   <g>
   </g>
   <g>
   </g>
   <g>
   </g>
   <g>
   </g>
   <g>
   </g>
   <g>
   </g>
   <g>
   </g>
   <g>
   </g>
   <g>
   </g>
  </g>
 </g>
</svg>
