<?xml version="1.0" encoding="UTF-8"?>
<!DOCTYPE svg PUBLIC "-//W3C//DTD SVG 1.1//EN" "http://www.w3.org/Graphics/SVG/1.1/DTD/svg11.dtd">
<!-- Creator: CorelDRAW 2017 -->
<svg xmlns="http://www.w3.org/2000/svg" xml:space="preserve" width="85.0211mm" height="92.5644mm" version="1.1" style="shape-rendering:geometricPrecision; text-rendering:geometricPrecision; image-rendering:optimizeQuality; fill-rule:evenodd; clip-rule:evenodd"
viewBox="0 0 7795.68 8487.33"
 xmlns:xlink="http://www.w3.org/1999/xlink">
 <defs>
  <style type="text/css">
   <![CDATA[
    .fil0 {fill:#050507}
   ]]>
  </style>
 </defs>
 <g id="Слой_x0020_1">
  <metadata id="CorelCorpID_0Corel-Layer"/>
  <g id="_1266721725920">
   <path class="fil0" d="M7318.73 4473.91l-763.72 0 0 -462.01c0,-569.27 -452.68,-1034.53 -1016.95,-1055.42l0 -1026.63c0,-299.53 -243.66,-543.22 -543.19,-543.22l-974.01 0.01 0 -134.81c0,-690.26 -561.56,-1251.82 -1251.82,-1251.82 -690.27,0 -1251.84,561.56 -1251.84,1251.82l0 134.82 -974 0c-299.52,0 -543.2,243.68 -543.2,543.21l0 6014.29c0,299.51 243.68,543.19 543.2,543.19l2827.07 0c43.53,0 83.44,-15.48 114.54,-41.22 59.2,26.41 124.69,41.22 193.61,41.22l3640.31 0c263,0 476.95,-213.97 476.95,-476.96l0 -3059.48c0,-263.01 -213.95,-476.98 -476.95,-476.98zm-1123.31 -462.01l0 462.01 -1393.69 0.01 0 -462.02c0,-384.25 312.59,-696.83 696.83,-696.83 384.24,0 696.85,312.58 696.85,696.83zm-4318.64 -2760.08c0,-491.98 400.27,-892.24 892.26,-892.24 491.98,0 892.25,400.26 892.25,892.24l0 134.8 -1784.5 0.02 0 -134.82zm-1333.58 494.41l974.02 0 0 189.32c-310.21,80.06 -540.05,362.23 -540.05,697.11 0,396.93 322.92,719.84 719.85,719.84 396.92,0 719.86,-322.91 719.86,-719.84 0,-334.87 -229.84,-617.05 -540.07,-697.11l0 -189.32 1784.49 -0.02 0 189.4c-310.11,80.14 -539.86,362.25 -539.86,697.05 0,396.93 322.92,719.84 719.84,719.84 396.93,0 719.85,-322.91 719.85,-719.84 0,-334.94 -229.94,-617.15 -540.24,-697.15l0 -189.3 974.03 0c101.25,0 183.6,82.38 183.6,183.64l0 1075.34c-426.49,135.92 -736.33,535.74 -736.33,1006.7l0 462.02 -763.73 0.01c-262.99,0 -476.96,213.95 -476.96,476.94l0 1834.05 -2841.89 0 0 -4855.07c0,-101.25 82.37,-183.62 183.61,-183.62zm1153.81 988.88c99.29,0 179.79,-80.5 179.79,-179.79l0 -234.38c107.7,62.37 180.49,178.58 180.49,311.71 0,198.64 -161.62,360.25 -360.28,360.25 -198.67,0 -360.27,-161.61 -360.27,-360.25 0,-133.14 72.79,-249.36 180.48,-311.71l0 234.38c0,99.29 80.5,179.79 179.8,179.79zm2144.06 -0.01c99.3,0 179.79,-80.5 179.79,-179.8l0 -234.46c107.79,62.35 180.67,178.63 180.67,311.82 0,198.65 -161.62,360.25 -360.27,360.25 -198.66,0 -360.26,-161.61 -360.26,-360.25 0,-133.05 72.7,-249.22 180.28,-311.58l0 234.24c0.01,99.28 80.5,179.78 179.8,179.78zm-3481.48 5209.04l0 -799.62 2841.87 0 0 865.83c0,40.5 5.11,79.82 14.66,117.38l-2672.92 0c-101.25,0.02 -183.61,-82.37 -183.61,-183.59zm7076.51 66.21c0,64.73 -52.66,117.38 -117.36,117.38l-3640.31 0c-64.72,0 -117.37,-52.66 -117.37,-117.38l0 -3059.47c0,-64.71 52.65,-117.36 117.37,-117.36l763.73 -0.01 0 396.79c0,99.29 80.5,179.79 179.8,179.79 99.29,0 179.79,-80.5 179.79,-179.79l0 -396.79 1393.69 -0.02 0 396.81c0,99.29 80.5,179.79 179.79,179.79 99.29,0 179.79,-80.5 179.79,-179.79l0 -396.81 763.73 0c64.73,0 117.36,52.66 117.36,117.38l0 3059.47z"/>
   <g>
   </g>
   <g>
   </g>
   <g>
   </g>
   <g>
   </g>
   <g>
   </g>
   <g>
   </g>
   <g>
   </g>
   <g>
   </g>
   <g>
   </g>
   <g>
   </g>
   <g>
   </g>
   <g>
   </g>
   <g>
   </g>
   <g>
   </g>
   <g>
   </g>
  </g>
 </g>
</svg>
