<?xml version="1.0" encoding="UTF-8"?>
<!DOCTYPE svg PUBLIC "-//W3C//DTD SVG 1.1//EN" "http://www.w3.org/Graphics/SVG/1.1/DTD/svg11.dtd">
<!-- Creator: CorelDRAW 2017 -->
<svg xmlns="http://www.w3.org/2000/svg" xml:space="preserve" width="81.3368mm" height="110.511mm" version="1.1" style="shape-rendering:geometricPrecision; text-rendering:geometricPrecision; image-rendering:optimizeQuality; fill-rule:evenodd; clip-rule:evenodd"
viewBox="0 0 1122.09 1524.57"
 xmlns:xlink="http://www.w3.org/1999/xlink">
 <defs>
  <style type="text/css">
   <![CDATA[
    .fil0 {fill:#050507}
   ]]>
  </style>
 </defs>
 <g id="Слой_x0020_1">
  <metadata id="CorelCorpID_0Corel-Layer"/>
  <g id="_1266721735872">
   <g>
    <path class="fil0" d="M885.96 376.31l0 -51.4c0,-179.12 -145.79,-324.91 -324.91,-324.91 -179.12,0 -324.91,145.79 -324.91,324.91l0 51.4 -236.13 0 0 943.28c0,113.08 91.9,204.98 204.98,204.98l712.13 0c113.08,0 204.98,-91.9 204.98,-204.98l-0 -943.28 -236.13 0zm-569.77 239.25c-38.01,0 -68.85,-30.84 -68.85,-68.85 0,-38.01 30.84,-68.84 68.85,-68.84 38.01,0 68.85,30.84 68.85,68.84 0,38.32 -30.84,68.85 -68.85,68.85zm419.93 -239.25l-350.15 0 0 -51.4c0,-96.57 78.5,-175.07 175.07,-175.07 96.57,0 175.07,78.5 175.07,175.07l0 51.4zm69.78 239.25c-38.01,0 -68.84,-30.84 -68.84,-68.85 0,-38.01 30.84,-68.84 68.84,-68.84 38.01,0 68.85,30.84 68.85,68.84 -0.31,38.32 -30.84,68.85 -68.85,68.85z"/>
   </g>
   <g>
   </g>
   <g>
   </g>
   <g>
   </g>
   <g>
   </g>
   <g>
   </g>
   <g>
   </g>
   <g>
   </g>
   <g>
   </g>
   <g>
   </g>
   <g>
   </g>
   <g>
   </g>
   <g>
   </g>
   <g>
   </g>
   <g>
   </g>
   <g>
   </g>
  </g>
 </g>
</svg>
