<?xml version="1.0" encoding="UTF-8"?>
<!DOCTYPE svg PUBLIC "-//W3C//DTD SVG 1.1//EN" "http://www.w3.org/Graphics/SVG/1.1/DTD/svg11.dtd">
<!-- Creator: CorelDRAW 2017 -->
<svg xmlns="http://www.w3.org/2000/svg" xml:space="preserve" width="97.0846mm" height="96.7986mm" version="1.1" style="shape-rendering:geometricPrecision; text-rendering:geometricPrecision; image-rendering:optimizeQuality; fill-rule:evenodd; clip-rule:evenodd"
viewBox="0 0 7843.73 7820.62"
 xmlns:xlink="http://www.w3.org/1999/xlink">
 <defs>
  <style type="text/css">
   <![CDATA[
    .fil0 {fill:#050507}
   ]]>
  </style>
 </defs>
 <g id="Слой_x0020_1">
  <metadata id="CorelCorpID_0Corel-Layer"/>
  <g id="_1266721706368">
   <g>
    <g id="Icons_15_">
     <g>
      <path class="fil0" d="M4161.94 2911.8l394.66 394.89c11.88,11.88 27.99,18.57 44.8,18.57 16.8,0 32.9,-6.69 44.8,-18.57l436.18 -436.53c87.43,-86.6 203.38,-134.25 326.11,-134.25 122.81,0 238.8,47.64 327.38,135.64l435.21 435.17c11.85,11.87 27.98,18.56 44.77,18.54 16.8,0 32.91,-6.67 44.8,-18.56l443.08 -443.33c87.41,-86.6 203.27,-134.25 326.1,-134.25 124.66,0 224.34,55.8 282.56,98.71 14.4,10.6 32.79,14.14 50.08,9.61 17.28,-4.51 31.59,-16.62 38.94,-32.88l179.93 -397.69c43.79,-96.68 47.39,-206.72 9.91,-305.97 -37.19,-99.34 -112.59,-179.72 -209.16,-223.42l-2275.5 -1029.84c-201.22,-91.08 -438.19,-1.79 -529.39,199.45l-766.2 1692.47c-3.64,8.01 -2.96,17.31 1.82,24.71 4.77,7.38 12.95,11.87 21.77,11.87l0 0c122.82,0 238.75,47.76 327.36,135.65z"/>
      <path class="fil0" d="M737.25 2729.59c7.73,26.49 31.74,44.98 59.32,45.62 61.13,1.39 176.27,21.47 298.13,136.73 78.51,74.25 298.93,297.41 394.15,394.08 11.83,12.02 28.02,18.82 44.88,18.89 16.87,0.07 33.08,-6.62 45.02,-18.55l395.92 -395.97c87.31,-86.6 203.28,-134.24 326.01,-134.24 122.82,0 238.78,47.64 327.38,135.63l394.84 395.11c24.67,24.67 64.59,24.75 89.38,0.21 97.2,-96.36 324.94,-322.02 401.41,-396.98 15.6,-15.28 21.49,-37.92 15.37,-58.86l-396.56 -1360.12c-38.46,-131.08 -175.54,-206.36 -306.92,-168.25 -211,61.64 -431.63,-59.6 -493.55,-270.57l-107.75 -369.63 -1300.52 379.3 107.74 369.55c61.42,211.05 -59.63,431.94 -270.49,493.36 -131.47,38.34 -206.87,176.02 -168.68,307.24l144.93 497.45z"/>
      <path class="fil0" d="M858.54 791.07l1275.52 -371.66 -38.21 -131.36c-61.85,-212.08 -284.02,-333.83 -495.97,-271.91l-507.71 147.97c-101.96,29.71 -187.75,98.62 -238.7,191.73 -51.05,92.98 -62.93,202.52 -33.13,304.42l38.21 130.81z"/>
      <path class="fil0" d="M7780.1 3841.3l-699.66 -699.8c-13.44,-13.41 -31.57,-21.04 -50.65,-21.04 -19.14,0 -37.21,7.63 -50.74,21.04l-712.55 712.82c-13.44,13.36 -31.61,20.99 -50.64,20.99 -19.14,0 -37.21,-7.5 -50.64,-20.99l-705.96 -706.09c-13.54,-13.36 -31.61,-20.98 -50.76,-20.98 -19.06,0 -37.19,7.63 -50.67,20.98l-705.67 706.09c-13.56,13.36 -31.62,20.99 -50.74,20.99 -19.09,0 -37.12,-7.63 -50.7,-20.99l-665.38 -665.81c-13.57,-13.4 -31.61,-21.03 -50.75,-21.03 -19.06,0 -37.12,7.63 -50.67,21.03l-665.67 665.81c-13.54,13.36 -31.59,20.99 -50.76,20.99 -19.04,0 -37.09,-7.63 -50.67,-20.99l-665.39 -665.81c-13.55,-13.4 -31.58,-21.03 -50.74,-21.03 -19.06,0 -37.12,7.63 -50.67,21.03l-665.67 665.81c-13.54,13.36 -31.62,20.99 -50.76,20.99 -19.05,0 -37.12,-7.63 -50.66,-20.99l-665.13 -665.81c-13.54,-13.4 -31.61,-21.03 -50.75,-21.03 -19.08,0 -37.21,7.63 -50.67,21.03l-652.68 652.8c-40.8,40.78 -63.72,96.18 -63.72,153.89l0 3825.44 0.24 0 7843.49 0 0 -3825.44c0,-57.7 -22.92,-113.11 -63.63,-153.89z"/>
     </g>
    </g>
   </g>
   <g>
   </g>
   <g>
   </g>
   <g>
   </g>
   <g>
   </g>
   <g>
   </g>
   <g>
   </g>
   <g>
   </g>
   <g>
   </g>
   <g>
   </g>
   <g>
   </g>
   <g>
   </g>
   <g>
   </g>
   <g>
   </g>
   <g>
   </g>
   <g>
   </g>
  </g>
 </g>
</svg>
