<?xml version="1.0" encoding="UTF-8"?>
<!DOCTYPE svg PUBLIC "-//W3C//DTD SVG 1.1//EN" "http://www.w3.org/Graphics/SVG/1.1/DTD/svg11.dtd">
<!-- Creator: CorelDRAW 2017 -->
<svg xmlns="http://www.w3.org/2000/svg" xml:space="preserve" width="97.0593mm" height="126.718mm" version="1.1" style="shape-rendering:geometricPrecision; text-rendering:geometricPrecision; image-rendering:optimizeQuality; fill-rule:evenodd; clip-rule:evenodd"
viewBox="0 0 741.75 968.41"
 xmlns:xlink="http://www.w3.org/1999/xlink">
 <defs>
  <style type="text/css">
   <![CDATA[
    .fil0 {fill:#050507}
   ]]>
  </style>
 </defs>
 <g id="Слой_x0020_1">
  <metadata id="CorelCorpID_0Corel-Layer"/>
  <path class="fil0" d="M656.42 361.59l-28.13 0.65 -52.27 571.67 129.53 -0.78c4.68,-13.61 -43.97,-512.44 -49.13,-571.53zm-613.81 -114.51c-12.53,9.35 -48.64,22.6 -38,66.3 1.12,4.62 3.12,9.67 5.79,13.25 8.84,11.86 -0.07,4.34 9.12,6.67 0.71,-13.29 2.21,-40.9 7.05,-51.76 7.18,-16.11 22.48,-12.92 38.15,-20.2l6.32 -116.01c-57.2,-2.06 -71.17,47.8 -54.14,78.02 9.17,16.25 13.35,12.23 25.7,23.73zm273.05 -213.24l-25.13 -3.09c16.81,25.02 22.22,22.66 47.28,61.4 13.93,21.54 32.35,47.01 38.4,74.25l7.44 -6.74c0.96,-0.97 4.42,-4.82 5.9,-6.49 5.44,-6.14 7,-8.31 12.81,-14.06 10.38,-10.27 20.02,-16.36 29.17,-24.96 15.55,-14.62 38.17,-41.8 23.81,-73.9 -9.39,-20.98 -39.19,-18.02 -52.37,-24.48 -6.66,-3.26 -23.85,-26.06 -60.71,-10.26 -18.39,7.88 -15.07,12.5 -26.6,28.32zm187.36 217.93c64.29,-56.6 103.04,18.81 137.59,40.33 24.6,-28.54 30.7,-22.49 45.4,-30.76 -4.64,-34.14 -33.4,-73.69 -27.55,-116.25 3.64,-26.47 2.79,-1.95 13.23,-23.26 17.97,-36.71 -61.06,-39.29 -65.16,-38.05 -37.49,11.29 24.45,9.29 -39.33,88.74 -18.95,23.61 -58.21,38.17 -64.18,79.25zm-45.67 38.8c24.3,-63.91 10.98,-75.97 58.51,-115.39 69.12,-57.33 24.02,-56.82 44.38,-87 4.26,-6.32 13.3,-2.77 8.66,-34.5 -18.63,-9.18 -83.65,-32.45 -76.47,11.96 9.98,61.77 -103.9,97.64 -93.35,154.76 5.87,31.76 28,43.7 58.27,70.18zm-350.58 -6.32c35.64,-19.64 43.66,-56.09 88.62,-53.25 33.09,2.09 66.78,45.63 85.46,59.4 17.69,-21.42 50.53,-54.52 91.72,-60.72 -18.04,-80.43 -89.29,-198.72 -165.33,-204.63 -120.77,-9.39 -119.18,215.89 -100.47,259.19zm27.43 -74.14c32.59,4.85 19.72,-22.18 55.46,-27.95 16.62,-2.68 43.09,11.69 61.6,15.57 81.74,17.12 67.91,-81.77 26.12,-35.78l-4.26 4.84c-37.74,-1.05 -60.92,-27.61 -98.22,-15.08 -26.2,8.8 -58.84,30.63 -40.7,58.4zm-59.73 581.28l44.02 0c9.97,0 18.13,8.16 18.13,18.13l0 0c0,9.97 -8.16,18.13 -18.13,18.13l-44.02 0c-9.97,0 -18.13,-8.16 -18.13,-18.13l0 0c0,-9.97 8.16,-18.13 18.13,-18.13zm0 75.15l197.97 0c9.97,0 18.13,8.16 18.13,18.13l0 0c0,9.97 -8.16,18.13 -18.13,18.13l-197.97 0c-9.97,0 -18.13,-8.16 -18.13,-18.13l0 0c0,-9.97 8.16,-18.13 18.13,-18.13zm656.61 -61.75c3.32,36.89 7.77,73.81 10.35,110.34 3.32,46.88 -19.22,52.79 -62.02,52.56l-588.12 -0.06c-36.65,0 -78.5,7.43 -90.46,-24.1 -8.48,-22.35 50.32,-572.13 54.33,-644.44 10.21,5.01 10.92,5.66 19.35,13.96 28.96,28.53 34.33,16.21 58.48,-6.08 45.41,-41.91 57.64,-63.73 108.38,-6.2 36.41,41.28 38.97,39.36 105.76,-23.57 30.49,-28.73 57.51,11.04 73.91,25.72 38.57,34.5 33.62,37.89 72.94,1.43 16.03,-14.86 45.66,-54.89 76.06,-30.64 15.14,12.07 48.8,49.22 66.68,55.31 15.47,1.46 30.67,-21.03 47.44,-29.93 15.86,169.47 31.68,336.56 46.89,505.69z"/>
 </g>
</svg>
