<?xml version="1.0" encoding="UTF-8"?>
<!DOCTYPE svg PUBLIC "-//W3C//DTD SVG 1.1//EN" "http://www.w3.org/Graphics/SVG/1.1/DTD/svg11.dtd">
<!-- Creator: CorelDRAW 2017 -->
<svg xmlns="http://www.w3.org/2000/svg" xml:space="preserve" width="96.3462mm" height="96.4055mm" version="1.1" style="shape-rendering:geometricPrecision; text-rendering:geometricPrecision; image-rendering:optimizeQuality; fill-rule:evenodd; clip-rule:evenodd"
viewBox="0 0 1180 1180.73"
 xmlns:xlink="http://www.w3.org/1999/xlink">
 <defs>
  <style type="text/css">
   <![CDATA[
    .fil0 {fill:#050507}
   ]]>
  </style>
 </defs>
 <g id="Слой_x0020_1">
  <metadata id="CorelCorpID_0Corel-Layer"/>
  <g id="_1266645040368">
   <g>
    <path class="fil0" d="M1131.11 406.27l-130.12 0c-2.65,-224.58 -186.03,-406.27 -411.09,-406.27 -225.06,0 -408.44,181.69 -410.85,406.27l-130.12 0c-46.03,3.61 -50.84,43.13 -48.43,57.35l114.7 676.15c4.1,23.61 24.58,40.96 48.43,40.96l852.54 0c24.1,0 44.58,-17.35 48.43,-40.96l114.94 -676.15c2.41,-14.22 -3.37,-53.98 -48.43,-57.35zm-541.21 -307.95c170.84,0 309.88,137.59 312.53,307.71l-625.06 0c2.65,-170.12 141.69,-307.71 312.53,-307.71zm384.82 984.1l-769.4 0 -98.31 -577.84 965.79 0 -98.07 577.84z"/>
    <path class="fil0" d="M384.84 719.76l409.88 0c27.23,0 49.16,-21.93 49.16,-49.16 0,-27.23 -21.93,-49.16 -49.16,-49.16l-409.88 0c-27.23,0 -49.16,21.93 -49.16,49.16 0,27.23 22.17,49.16 49.16,49.16z"/>
    <path class="fil0" d="M384.84 965.55l409.88 0c27.23,0 49.16,-21.93 49.16,-49.16 0,-27.23 -21.93,-49.16 -49.16,-49.16l-409.88 0c-27.23,0 -49.16,21.93 -49.16,49.16 0,27.23 22.17,49.16 49.16,49.16l0 0z"/>
   </g>
  </g>
 </g>
</svg>
