<?xml version="1.0" encoding="UTF-8"?>
<!DOCTYPE svg PUBLIC "-//W3C//DTD SVG 1.1//EN" "http://www.w3.org/Graphics/SVG/1.1/DTD/svg11.dtd">
<!-- Creator: CorelDRAW 2017 -->
<svg xmlns="http://www.w3.org/2000/svg" xml:space="preserve" width="97.2772mm" height="84.4396mm" version="1.1" style="shape-rendering:geometricPrecision; text-rendering:geometricPrecision; image-rendering:optimizeQuality; fill-rule:evenodd; clip-rule:evenodd"
viewBox="0 0 2647.74 2298.32"
 xmlns:xlink="http://www.w3.org/1999/xlink">
 <defs>
  <style type="text/css">
   <![CDATA[
    .fil0 {fill:#050507}
   ]]>
  </style>
 </defs>
 <g id="Слой_x0020_1">
  <metadata id="CorelCorpID_0Corel-Layer"/>
  <g id="_1266645026992">
   <g>
    <path class="fil0" d="M2135.82 642.57l0 -296.56c0,-190.74 -152.18,-346 -342.95,-346l-934.93 0c-190.74,0 -346.07,155.2 -346.07,346l0 296.5 -361.3 0c-83.17,0 -150.58,67.43 -150.58,150.58l0 327.32c0,83.21 67.41,150.56 150.56,150.56l44.88 0 164.52 903.8c12.99,71.55 75.41,123.56 148.11,123.56l1634.72 0c72.77,0 135.06,-52.01 148.11,-123.62l164.42 -903.76 41.85 0.02c83.15,0 150.56,-67.37 150.56,-150.56l0 -327.32c0,-83.15 -67.41,-150.56 -150.56,-150.56l-361.36 0.04 0 0zm-1345.01 -296.56c0,-36.39 30.75,-67.07 67.14,-67.07l935.1 0c36.32,0 63.96,30.69 63.96,67.07l0 296.5 -1066.19 0 0 -296.5zm208.27 1414.22c0,57.88 -46.26,104.74 -104.14,104.74 -57.81,0 -104.13,-46.89 -104.13,-104.74l0 -575.03c0,-57.88 46.32,-104.7 104.13,-104.7 57.92,0 104.14,46.93 104.14,104.7l0 575.03zm430.71 0c0,57.88 -46.32,104.74 -104.14,104.74 -57.81,0 -104.2,-46.89 -104.2,-104.74l0.02 -575.03c0,-57.88 46.38,-104.7 104.2,-104.7 57.88,0 104.13,46.93 104.13,104.7l-0.02 575.03zm430.73 0c0,57.88 -46.32,104.74 -104.07,104.74 -57.88,0 -104.2,-46.89 -104.2,-104.74l0 -575.03c0,-57.88 46.32,-104.7 104.2,-104.7 57.75,0 104.07,46.93 104.07,104.7l0 575.03z"/>
   </g>
   <g>
   </g>
   <g>
   </g>
   <g>
   </g>
   <g>
   </g>
   <g>
   </g>
   <g>
   </g>
   <g>
   </g>
   <g>
   </g>
   <g>
   </g>
   <g>
   </g>
   <g>
   </g>
   <g>
   </g>
   <g>
   </g>
   <g>
   </g>
   <g>
   </g>
  </g>
 </g>
</svg>
