<?xml version="1.0" encoding="UTF-8"?>
<!DOCTYPE svg PUBLIC "-//W3C//DTD SVG 1.1//EN" "http://www.w3.org/Graphics/SVG/1.1/DTD/svg11.dtd">
<!-- Creator: CorelDRAW 2017 -->
<svg xmlns="http://www.w3.org/2000/svg" xml:space="preserve" width="107.095mm" height="98.2031mm" version="1.1" style="shape-rendering:geometricPrecision; text-rendering:geometricPrecision; image-rendering:optimizeQuality; fill-rule:evenodd; clip-rule:evenodd"
viewBox="0 0 1134.71 1040.5"
 xmlns:xlink="http://www.w3.org/1999/xlink">
 <defs>
  <style type="text/css">
   <![CDATA[
    .fil0 {fill:#050507}
   ]]>
  </style>
 </defs>
 <g id="Слой_x0020_1">
  <metadata id="CorelCorpID_0Corel-Layer"/>
  <g id="_1232017631216">
   <g>
    <g>
     <path class="fil0" d="M797.4 274.32l99.47 0 -147.46 -252.99c-11.88,-20.5 -38.2,-27.49 -58.7,-15.37 -20.5,11.88 -27.49,38.2 -15.37,58.7l122.07 209.66z"/>
     <path class="fil0" d="M459.85 64.66c11.88,-20.5 5.12,-46.82 -15.37,-58.7 -20.5,-11.88 -46.82,-5.12 -58.7,15.37l-147.46 253.22 99.47 0 122.07 -209.89z"/>
     <path class="fil0" d="M1061.57 351.89l-988.65 0c-40.3,0 -72.91,32.61 -72.91,72.91l0 80.84c0,40.3 32.61,72.91 72.91,72.91l22.83 0 70.35 381.34c8.85,44.96 49.85,80.6 92.48,80.6l27.95 0 183.57 0c18.64,0 42.86,0 67.56,0l0 0 22.36 0 22.36 0 0 0c24.69,0 48.92,0 67.56,0l183.57 0 27.95 0c42.63,0 83.63,-35.64 92.48,-80.6l70.82 -381.58 37.04 0c40.3,0 72.91,-32.61 72.91,-72.91l0 -80.84c-0.23,-40.07 -32.85,-72.68 -73.15,-72.68zm-659.02 381.11l0 164.47c0,23.53 -19.1,41.23 -41.23,41.23 -23.53,0 -41.23,-19.1 -41.23,-41.23l0 -68.95 0 -161.67c0,-23.53 19.1,-41.23 41.23,-41.23 23.53,0 41.23,19.1 41.23,41.23l0 66.16zm132.32 0l0 164.47c0,23.53 -19.1,41.23 -41.23,41.23 -23.53,0 -41.23,-19.1 -41.23,-41.23l0 -68.95 0 -161.67c0,-23.53 19.1,-41.23 41.23,-41.23 22.13,0 41.23,19.1 41.23,41.23l0 66.16zm133.02 95.51l0 68.95c0,22.13 -17.7,41.23 -41.23,41.23 -22.13,0 -41.23,-17.7 -41.23,-41.23l0 -164.46 0 -66.16c0,-22.13 19.1,-41.23 41.23,-41.23 22.13,0 41.23,17.7 41.23,41.23l0 161.67zm132.32 0l0 68.95c0,22.13 -17.7,41.23 -41.23,41.23 -22.13,0 -41.23,-17.7 -41.23,-41.23l0 -164.46 0 -66.16c0,-22.13 17.7,-41.23 41.23,-41.23 22.13,0 41.23,17.7 41.23,41.23l0 161.67z"/>
    </g>
   </g>
   <g>
   </g>
   <g>
   </g>
   <g>
   </g>
   <g>
   </g>
   <g>
   </g>
   <g>
   </g>
   <g>
   </g>
   <g>
   </g>
   <g>
   </g>
   <g>
   </g>
   <g>
   </g>
   <g>
   </g>
   <g>
   </g>
   <g>
   </g>
   <g>
   </g>
  </g>
 </g>
</svg>
